<svg width="100" height="100" viewBox="0 0 100 100" fill="none" xmlns="http://www.w3.org/2000/svg">
<path d="M50.7631 84.4552C52.1757 84.2433 54.1179 84.0173 56.039 83.6429C66.1175 81.6936 74.1408 76.5802 79.6215 67.8295C79.8541 67.3621 79.9827 66.8499 79.9985 66.3281C80.0144 65.8063 79.9171 65.2873 79.7133 64.8067C76.5915 58.6762 71.3016 55.2155 64.825 53.4639C63.7991 53.3356 62.7617 53.5868 61.9081 54.1702C54.457 58.8598 46.8786 58.8316 39.3568 54.601C37.0473 53.3015 35.0768 53.4215 32.8379 54.262C28.5907 55.8725 24.8658 58.6156 22.0673 62.1934C20.6547 64.0156 18.9456 66.0779 20.8384 68.6629C28.113 78.6072 37.9514 83.7348 50.7631 84.4552ZM67.7773 32.8196C67.0286 22.7622 59.4291 15.5018 50.0851 15.5441C47.7947 15.5394 45.526 15.9884 43.41 16.8651C41.294 17.7418 39.3726 19.0288 37.7566 20.652C36.1406 22.2752 34.8621 24.2024 33.9949 26.3223C33.1277 28.4421 32.6888 30.7128 32.7038 33.0032C32.7038 42.7356 40.84 50.4058 50.4453 50.5399C59.3656 50.6671 67.862 41.7468 67.7773 32.8196Z" fill="black"/>
</svg>
