<svg width="100" height="100" viewBox="0 0 100 100" fill="none" xmlns="http://www.w3.org/2000/svg">
<path d="M49.5968 83.8828C43.9484 83.8828 38.2918 84.0731 32.6516 83.8828C23.3562 83.5105 16.4755 76.9166 16.2357 67.6753C15.9214 55.9603 15.9214 44.2397 16.2357 32.5136C16.4921 23.173 23.29 16.4964 32.6185 16.2399C44.1965 15.92 55.7745 15.92 67.3525 16.2399C76.7224 16.4881 83.4955 23.1647 83.7602 32.4474C84.0799 44.1569 84.0799 55.8775 83.7602 67.6091C83.5121 76.8835 76.7555 83.4195 67.3856 83.858C61.4726 84.1393 55.543 83.9159 49.6134 83.9159L49.5968 83.8828ZM79.2282 52.1297C79.2282 44.8161 79.65 38.1891 79.1042 31.6449C78.5749 25.2744 74.8286 21.2618 68.5765 20.9557C56.6429 20.3683 44.6514 20.1284 32.7261 20.691C24.8199 21.0467 20.8421 25.4233 20.4699 33.5478C19.9737 44.4107 20.2963 55.3149 20.4203 66.2027C20.4203 67.9483 21.2473 69.6857 21.7352 71.8203C24.2824 70.1656 26.2258 68.8584 28.1528 67.5678C30.212 66.1944 32.2877 64.8045 34.3139 63.4311C37.5144 61.28 40.6239 61.1725 43.8244 63.5717C48.6954 67.2203 52.1523 67.0052 56.7008 63.0422C59.9095 60.2458 63.3168 57.6149 66.3519 54.6531C70.0982 51.0293 73.9603 48.7045 79.2282 52.1297Z" fill="black"/>
<path d="M39.8298 28.0949C44.3865 28.0949 47.6035 31.2801 47.5291 35.7643C47.5291 37.8049 46.7188 39.7619 45.2764 41.2049C43.8341 42.6478 41.8778 43.4585 39.838 43.4585C37.7982 43.4585 35.842 42.6478 34.3996 41.2049C32.9572 39.7619 32.1469 37.8049 32.1469 35.7643C32.1047 34.7444 32.2747 33.7269 32.6461 32.7762C33.0175 31.8255 33.5822 30.9623 34.3044 30.2414C35.0267 29.5204 35.8907 28.9573 36.8419 28.5878C37.793 28.2183 38.8104 28.0505 39.8298 28.0949Z" fill="black"/>
</svg>
