<?xml version="1.0" encoding="utf-8"?>
<!-- Generator: Adobe Illustrator 21.1.0, SVG Export Plug-In . SVG Version: 6.00 Build 0)  -->
<svg version="1.1" id="Layer_1" xmlns="http://www.w3.org/2000/svg" xmlns:xlink="http://www.w3.org/1999/xlink" x="0px" y="0px"
	 viewBox="0 0 404.7 403.7" style="enable-background:new 0 0 404.7 403.7;" xml:space="preserve">
<style type="text/css">
	.st0{fill:#D8B926;}
	.st1{fill:#039C9C;}
</style>
<title>Round</title>
<path class="st0" d="M259.3,257.1c-15.8-22.2-33.8-44-58.6-52.6c-4.6-1.6-9.3-2.4-14.2-2.4c-23.1,0-42.6,18.4-52.3,34.2
	c-3.5,5.8-6.6,11.9-9.2,18.2c-0.1,0.2-0.2,0.4-0.3,0.6c10-11.6,22-17.5,35.6-17.5c10.2,0,19.3,3.3,26.4,6.9c1.6,0.8,3.1,1.7,4.5,2.5
	c2,1.2,3.7,2.3,5.1,3.4l0.3,0.2l0.7,0.6c7.3,5.6,13.1,12.5,18.4,19.2l0,0l1.9,2.5l0.7,0.9l0,0c19.2,25.6,33.9,54,45.9,78.6
	c4.3,8.7,8,16.9,11.5,25.1l0.4,0.8c0.6,1.3,1.5,2.6,2.5,3.6c12.9-5.5,25.2-12.4,36.6-20.5c-0.5-1.9-1.2-3.8-2-5.6
	C297.2,318.3,279,285.1,259.3,257.1z"/>
<path class="st0" d="M245.5,377.4c-5-10.9-10.5-21.9-16.4-32.9c-11.8-22.4-22.6-40-33.8-55.3c-1.7-2.1-3.4-4-5-5.9
	c-3.3,10.3-5.7,20.9-7.3,31.7c-3.1,27.1-3.6,54.4-1.5,81.6c0,0.1,0,0.2,0,0.3c6.4,0.6,12.8,0.9,19,0.9c17.2,0,34.4-2.3,51.1-6.7
	c-1-2.3-2-4.5-3-6.8S246.6,379.7,245.5,377.4z"/>
<path class="st0" d="M397.8,173.2l-0.6,0.4l-1.3,0.9l-1.4,1l-1.4,0.9l-1.5,0.9l-1.4,0.9l-1.5,0.9l-1.5,0.8l-1.6,0.8l-1.5,0.8
	l-1.6,0.8l-1.6,0.8l-1.6,0.7l-1.7,0.7l-1.7,0.7l-1.8,0.7l-1.7,0.6l-1.8,0.7l-1.7,0.6l-1.9,0.7l-1.7,0.5l-2,0.6l-1.1,0.3
	c-1.6,0.5-3.3,1-5,1.4l-1.4,0.4l-2.2,0.6l-1.6,0.4l-2.2,0.5l-1.8,0.4l-2.1,0.5l-1.8,0.4l-2.1,0.4l-1.8,0.4l-2.1,0.4l-1.9,0.3
	l-2.1,0.4l-1.9,0.3l-2.1,0.3l-2,0.3l-2.1,0.3l-2,0.3l-2.1,0.3l-2,0.2l-2,0.2l-2,0.2l-2,0.2l-2.1,0.2l-2,0.2l-2,0.2l-2,0.1l-2.1,0.1
	l-1.9,0.1l-2.2,0.1l-1.8,0.1l-2.2,0.1l-1.7,0.1l-2.3,0.1h-1.6h-2.5H286h-3.8l0,0c-1.9,0-3.8,0-5.7-0.1h-1.7c-1.5,0-3-0.1-4.4-0.1
	l-1.4,0c-1.8-0.1-3.7-0.2-5.5-0.3l-1.4-0.1c-1.4-0.1-2.8-0.2-4.2-0.3l-1.7-0.1c-1.6-0.1-3.2-0.3-4.8-0.5l-0.6-0.1
	c-1.7-0.2-3.3-0.4-4.9-0.6l-1.6-0.2c-1.3-0.2-2.5-0.4-3.7-0.5l-1.4-0.2c-1.6-0.3-3.2-0.5-4.7-0.8l-0.3-0.1
	c14.6,9.9,32.4,23.8,43.7,39.3c13.7,18.8,26,38.5,36.8,59.1c5.6,10.6,10.9,21.4,15.7,32c2.4,5.2,4.8,10.7,7.1,16.2
	c15.1-14.3,27.8-30.8,37.7-49.1l0.4-0.7c1.3-2.4,2.5-4.8,3.9-7.5l0.7-1.4c1.1-2.3,2.2-4.7,3.3-7.2c0.3-0.7,0.6-1.3,0.9-2
	c1-2.3,1.9-4.6,2.7-6.9c0.3-0.8,0.6-1.6,0.9-2.5c0.8-2.3,1.6-4.5,2.3-6.8c0.3-0.9,0.5-1.7,0.8-2.6l0.1-0.5c0.6-2,1.2-4,1.7-6
	l0.1-0.4l0.3-1.4c0.1-0.3,0.2-0.7,0.2-1l0.2-0.9l0.1-0.4c0.5-2,1-4.1,1.4-6.1c0.2-1,0.4-2,0.6-3l0.4-1.9c0.3-1.7,0.6-3.3,0.9-5
	c0.2-1.1,0.3-2.3,0.5-3.4l0.3-2.6c0.2-1.4,0.4-2.7,0.5-4.1s0.3-3,0.4-4.6l0.2-2.8c0.1-1,0.2-2,0.2-3c0.2-3,0.2-6.1,0.3-9.6v-1
	C399.5,190.3,398.9,181.7,397.8,173.2z"/>
<path class="st0" d="M176.5,104c5.2,0.9,10.4,1.2,15.7,1.1c23.6,0,62.4-4.7,100.8-18c9.6-16.1,26.3-26.7,44.9-28.5
	C301.3,22.9,252.2,3.1,201.1,3.2c-11.1,0-22.2,1-33.2,2.8C162.4,59.8,171.3,101.4,176.5,104z"/>
<path class="st0" d="M327,171.4c-34.6,12.7-69.2,17.9-89.8,20l0,0l0.9,0.1l3.3,0.5l1.5,0.2c1.4,0.2,2.9,0.4,4.4,0.6h0.4
	c1.6,0.2,3.2,0.4,4.9,0.5l1.4,0.1l3.8,0.3l1.5,0.1c1.7,0.1,3.4,0.3,5.1,0.4l0,0c1.8,0.1,3.5,0.2,5.3,0.3l1.5,0l4,0.1h1.5
	c1.8,0,3.6,0,5.5,0c1.5,0,3.1,0,4.6,0h1.6l3-0.1l1.8-0.1l2.8-0.1l1.9-0.1l2.7-0.1l1.9-0.1l2.5-0.2l2-0.1l2.5-0.2l1.9-0.2l2.5-0.2
	l1.9-0.2l2.5-0.3l1.9-0.2l2.4-0.3l1.9-0.3l2.4-0.3l1.8-0.3l2.3-0.4l1.8-0.3l2.3-0.4l1.8-0.3l2.3-0.4l1.8-0.4l2.2-0.5l1.7-0.4
	l2.2-0.5l1.7-0.4l2.1-0.5l1.6-0.4l2.1-0.5l1.6-0.5l2-0.6l1.6-0.5l1.9-0.6l1.5-0.5l1.9-0.6l1.5-0.5l1.8-0.6l1.5-0.5l1.8-0.7l1.5-0.6
	l1.7-0.7l1.4-0.6l1.6-0.7l1.4-0.6l1.5-0.7l1.3-0.7l1.4-0.7l1.3-0.7l1.4-0.8l1.3-0.7l1.3-0.8l1.2-0.7l1.2-0.8l1.1-0.8l1.1-0.8
	l1.1-0.8l1-0.8l1-0.8l0.4-0.3l0,0c-1-6.1-2.3-12.3-3.9-18.3C378.2,169.5,351.6,178.9,327,171.4z"/>
<path class="st0" d="M223.3,169.4h1.8c0.9,0,1.8,0,2.7,0h0.1c22-1.7,46.4-6.7,70.7-14.6c-8-9.5-12.8-21.3-13.6-33.6
	c-30.5,9.8-60.3,15.1-84.4,15.1c-3,0-5.8-0.1-8.5-0.3c-11.6-0.7-23-3.6-33.5-8.5l0,0C176.1,160.9,202.7,169,223.3,169.4z"/>
<path class="st1" d="M161.1,244.5c-17.1,0-31.3,10.9-42.2,32.4c-6.6,25.5-8.1,52.9-9.1,78.9c-0.3,7,0.4,14,2,20.8
	c13.3,6.7,27.2,11.9,41.7,15.5c-4.3-45.4-0.6-85,10.9-117.8c5.3-15.1,12-22,16.9-25.1C175,246.3,168.1,244.7,161.1,244.5z"/>
<path class="st1" d="M92.5,63.2c1.6,25.5,5.5,85.2,66.5,103.6c9.4,2.8,23.5,7.1,41.3,7.1c2.7,0,5.3-0.1,7.9-0.3
	c-18.8-3.7-39.3-14.8-54-42.1l-0.1-0.3c-0.4-0.8-0.8-1.6-1.2-2.4c-0.3-0.5-0.5-1-0.8-1.5s-0.5-1.1-0.8-1.7c-0.6-1.2-1.1-2.4-1.6-3.6
	l-3.7-8.4l0.4,0.3C138,90.3,134,60.2,134.5,24.2c0-3-0.8-6-2.2-8.6c-14.4,5.3-28.1,12.4-40.8,20.9c0.1,8.5,0.3,16.3,0.9,24
	L92.5,63.2z"/>
<path class="st1" d="M134,200.3c-54.6,20.4-87.8,55.4-95.1,100.6c-0.1,0.7-0.2,1.5-0.3,2.2c-0.1,0.9-0.3,1.9-0.4,2.9
	c-0.2,1.3-0.3,2.6-0.4,3.9c0,0.5-0.1,1-0.1,1.4c11.9,17.5,26.6,33,43.4,45.8c0.3-17.8,1.2-31.9,2.7-42.9c0.3-2.4,0.6-4.9,0.9-7.4
	c2.9-22.9,6.4-51.3,21.4-73.2C117.8,216.5,125.9,207.1,134,200.3z"/>
<path class="st1" d="M142.2,191.7l-1.8-0.4c-11.4-2.9-29-9-44.3-24.4c-23.2-23.3-33.9-59.7-31.9-108.4
	c-66.7,64.3-79.8,166.3-31.3,245.3l0,0c0.1-0.4,0.1-0.8,0.2-1.3c0.2-1.4,0.4-2.7,0.6-4.1c0.2-1.2,0.5-2.5,0.7-3.7
	c0.1-0.3,0.1-0.7,0.2-1C44.8,246.9,82.2,211.2,142.2,191.7z"/>
<path class="st1" d="M312.2,117c0,17.3,14,31.3,31.3,31.3c17.3,0,31.3-14,31.3-31.3s-14-31.3-31.3-31.3l0,0
	C326.2,85.7,312.2,99.7,312.2,117z"/>
<path class="st1" d="M339.3,69.8v0.7c0,0.1-0.1,0.1-0.1,0.1H337v6.1c0,0.1-0.1,0.1-0.1,0.1c0,0,0,0,0,0H336v-6.3h-2.2v-0.7
	c0-0.1,0.1-0.1,0.1-0.1H339.3z"/>
<path class="st1" d="M336.9,77.2h-1.2V71h-2.2v-1.1c0-0.3,0.2-0.5,0.5-0.5h5.7v1.1c0,0.3-0.2,0.5-0.5,0.5h-1.7v5.7
	C337.4,77,337.2,77.2,336.9,77.2C336.9,77.2,336.9,77.2,336.9,77.2z M336.5,76.4h0.1v-6.2h-0.1V76.4z"/>
<path class="st1" d="M343.1,69.9l2.5,4.3l2.5-4.3c0.1-0.1,0.2-0.1,0.3-0.1h0.7c0.1,0,0.1,0,0.1,0.1c0,0,0,0,0,0v6.9h-0.8
	c-0.1,0-0.1-0.1-0.1-0.1v-5.5l-2.1,3.7c0,0.1-0.1,0.1-0.2,0.1h-0.7c-0.1,0-0.2,0-0.2-0.1l-2-3.7v5.5c0,0.1-0.1,0.1-0.1,0.1H342v-6.9
	c0-0.1,0.1-0.1,0.1-0.1c0,0,0,0,0,0h0.7C342.9,69.8,343,69.8,343.1,69.9z"/>
<path class="st1" d="M349.6,77.2h-1.2c-0.3,0-0.5-0.2-0.5-0.5v-3.9l-1.3,2.4c-0.1,0.2-0.3,0.3-0.6,0.3h-0.7c-0.2,0-0.4-0.1-0.5-0.3
	l-1.3-2.4v3.9c0,0.3-0.2,0.5-0.5,0.5h-1.2v-7.3c0-0.3,0.2-0.5,0.5-0.5c0,0,0,0,0,0h0.7c0.3,0,0.5,0.1,0.6,0.4l0,0l2.1,3.6l2.1-3.7
	c0.1-0.2,0.4-0.4,0.6-0.4h0.7c0.3,0,0.5,0.2,0.5,0.5c0,0,0,0,0,0L349.6,77.2z M348.7,76.4h0.1v-6.2h-0.1V76.4z M342.4,76.4h0.1v-6.2
	h-0.1V76.4z M345.8,74.6L345.8,74.6l0.9-1.5L345.8,74.6z M345.4,74.6L345.4,74.6l-0.7-1.2L345.4,74.6z"/>
</svg>
