<svg xmlns="http://www.w3.org/2000/svg" version="1.1" xmlns:xlink="http://www.w3.org/1999/xlink" xmlns:svgjs="http://svgjs.com/svgjs" width="512" height="512" x="0" y="0" viewBox="0 0 512 512" style="enable-background:new 0 0 512 512" xml:space="preserve" class=""><g><path d="M482.636 96.734H29.364A29.4 29.4 0 0 0 0 126.1v259.8a29.4 29.4 0 0 0 29.364 29.364h453.272A29.4 29.4 0 0 0 512 385.9V126.1a29.4 29.4 0 0 0-29.364-29.366ZM497.49 385.9a14.871 14.871 0 0 1-14.854 14.854H29.364A14.871 14.871 0 0 1 14.51 385.9V126.1a14.871 14.871 0 0 1 14.854-14.854h453.272A14.871 14.871 0 0 1 497.49 126.1Zm-24.811-200.5a44 44 0 0 1-43.946-43.945 7.255 7.255 0 0 0-7.255-7.255H90.522a7.255 7.255 0 0 0-7.255 7.255A44 44 0 0 1 39.322 185.4a7.255 7.255 0 0 0-7.255 7.255V319.34a7.255 7.255 0 0 0 7.255 7.255 44 44 0 0 1 43.945 43.945 7.256 7.256 0 0 0 7.255 7.256h330.956a7.256 7.256 0 0 0 7.255-7.256 44 44 0 0 1 43.946-43.94 7.255 7.255 0 0 0 7.255-7.255V192.659a7.256 7.256 0 0 0-7.255-7.259Zm-7.255 127.129a58.585 58.585 0 0 0-50.753 50.752H97.329a58.584 58.584 0 0 0-50.752-50.752V199.467a58.584 58.584 0 0 0 50.752-50.753h317.342a58.585 58.585 0 0 0 50.753 50.753ZM256 172.726A83.274 83.274 0 1 0 339.275 256 83.368 83.368 0 0 0 256 172.726Zm0 152.038A68.764 68.764 0 1 1 324.765 256 68.843 68.843 0 0 1 256 324.764Zm-7.948-86.548v2.584c0 5.4 1.458 6.177 9.646 8.148 7.764 1.87 20.759 5 20.759 22.256v2.582a22.491 22.491 0 0 1-15.2 21.248v5.9a7.256 7.256 0 0 1-14.511 0v-5.9a22.491 22.491 0 0 1-15.2-21.248 7.255 7.255 0 0 1 14.51 0 7.948 7.948 0 1 0 15.895 0V271.2c0-5.395-1.458-6.177-9.646-8.148-7.764-1.87-20.759-5-20.759-22.256v-2.582a22.491 22.491 0 0 1 15.2-21.248v-5.9a7.256 7.256 0 0 1 14.511 0v5.9a22.491 22.491 0 0 1 15.2 21.248 7.255 7.255 0 0 1-14.51 0 7.948 7.948 0 1 0-15.895 0ZM156.733 256a7.255 7.255 0 0 1-7.255 7.255H74.434a7.255 7.255 0 1 1 0-14.51h75.044a7.255 7.255 0 0 1 7.255 7.255Zm205.79-7.255h75.044a7.255 7.255 0 0 1 0 14.51h-75.044a7.255 7.255 0 0 1 0-14.51Z" fill="#ced4da" data-original="#000000" opacity="1" class=""></path></g></svg>